HIERARCHY
ROOT Hips
{
	OFFSET -0.001795 -0.223333 0.028219
	CHANNELS 6 Xposition Yposition Zposition Zrotation Yrotation Xrotation 
	JOINT LeftUpLeg
	{
		OFFSET 0.069520 -0.091406 -0.006815
		CHANNELS 3 Zrotation Yrotation Xrotation
		JOINT LeftLeg
		{
			OFFSET 0.034277 -0.375199 -0.004496
			CHANNELS 3 Zrotation Yrotation Xrotation
			JOINT LeftFoot
			{
				OFFSET -0.013596 -0.397961 -0.043693
				CHANNELS 3 Zrotation Yrotation Xrotation
				JOINT LeftToe
				{
					OFFSET 0.026358 -0.055791 0.119288
					CHANNELS 3 Zrotation Yrotation Xrotation
					End Site
					{
						OFFSET 0.000000 0.000000 0.000000
					}
				}
			}
		}
	}
	JOINT RightUpLeg
	{
		OFFSET -0.067670 -0.090522 -0.004320
		CHANNELS 3 Zrotation Yrotation Xrotation
		JOINT RightLeg
		{
			OFFSET -0.038290 -0.382569 -0.008850
			CHANNELS 3 Zrotation Yrotation Xrotation
			JOINT RightFoot
			{
				OFFSET 0.015774 -0.398415 -0.042312
				CHANNELS 3 Zrotation Yrotation Xrotation
				JOINT RightToe
				{
					OFFSET -0.025372 -0.048144 0.123348
					CHANNELS 3 Zrotation Yrotation Xrotation
					End Site
					{
						OFFSET 0.000000 0.000000 0.000000
					}
				}
			}
		}
	}
	JOINT Spine
	{
		OFFSET -0.002533 0.108963 -0.026696
		CHANNELS 3 Zrotation Yrotation Xrotation
		JOINT Spine1
		{
			OFFSET 0.005487 0.135180 0.001092
			CHANNELS 3 Zrotation Yrotation Xrotation
			JOINT Spine2
			{
				OFFSET 0.001457 0.052922 0.025425
				CHANNELS 3 Zrotation Yrotation Xrotation
				JOINT Neck
				{
					OFFSET -0.002778 0.213870 -0.042857
					CHANNELS 3 Zrotation Yrotation Xrotation
					JOINT Head
					{
						OFFSET 0.005152 0.064970 0.051349
						CHANNELS 3 Zrotation Yrotation Xrotation
						End Site
						{
							OFFSET 0.000000 0.000000 0.000000
						}
					}
				}
				JOINT LeftShoulder
				{
					OFFSET 0.078845 0.121749 -0.034090
					CHANNELS 3 Zrotation Yrotation Xrotation
					JOINT LeftArm
					{
						OFFSET 0.090977 0.030469 -0.008868
						CHANNELS 3 Zrotation Yrotation Xrotation
						JOINT LeftForeArm
						{
							OFFSET 0.259612 -0.012772 -0.027456
							CHANNELS 3 Zrotation Yrotation Xrotation
							JOINT LeftHand
							{
								OFFSET 0.249234 0.008986 -0.001171
								CHANNELS 3 Zrotation Yrotation Xrotation
								End Site
								{
									OFFSET 0.000000 0.000000 0.000000
								}
							}
						}
					}
				}
				JOINT RightShoulder
				{
					OFFSET -0.081759 0.118833 -0.038615
					CHANNELS 3 Zrotation Yrotation Xrotation
					JOINT RightArm
					{
						OFFSET -0.096012 0.032551 -0.009143
						CHANNELS 3 Zrotation Yrotation Xrotation
						JOINT RightForeArm
						{
							OFFSET -0.253742 -0.013329 -0.021401
							CHANNELS 3 Zrotation Yrotation Xrotation
							JOINT RightHand
							{
								OFFSET -0.255298 0.007772 -0.005559
								CHANNELS 3 Zrotation Yrotation Xrotation
								End Site
								{
									OFFSET 0.000000 0.000000 0.000000
								}
							}
						}
					}
				}
			}
		}
	}
}
MOTION
Frames: 16
Frame Time: 0.050000
-0.030157 0.387212 -0.013144 -6.758749 -27.065796 -10.674909 10.427668 1.445794 -13.942844 17.349786 -31.330399 134.522531 -30.526746 -33.820305 26.152887 0.000000 0.000000 0.000000 0.869732 1.465092 -12.359679 16.125840 -1.493820 140.096833 -2.038806 -6.225929 14.189353 0.000000 0.000000 0.000000 11.462880 -1.308141 20.672404 -11.241224 3.308976 -21.289429 5.005536 9.326447 27.838264 6.971935 -1.626747 -38.724707 0.000000 0.000000 0.000000 -44.596960 -17.981006 15.926102 -15.775985 -21.578255 -1.462198 11.910750 -41.860280 -3.129967 0.000000 0.000000 0.000000 51.788162 3.306422 -6.698375 22.593528 6.889778 -1.256840 -21.333771 58.970027 -9.846723 0.000000 0.000000 0.000000 
-0.026768 0.399588 -0.015133 -6.761426 -26.688183 -9.880375 9.844041 1.261373 -13.849472 16.790436 -29.388173 134.315996 -27.254761 -35.744035 19.843444 0.000000 0.000000 0.000000 0.986831 1.416508 -12.005276 16.040095 -0.639670 139.092965 -2.142115 -6.260346 11.008563 0.000000 0.000000 0.000000 11.703862 -1.375027 20.625295 -11.362716 3.388841 -20.611376 5.126115 9.249322 27.724602 7.691974 -1.790187 -39.519459 0.000000 0.000000 0.000000 -44.839116 -17.269073 15.323828 -16.001391 -20.804319 -1.514505 9.615378 -37.772448 -2.005469 0.000000 0.000000 0.000000 52.726313 3.032328 -7.089978 22.638518 6.543855 -1.299388 -20.073620 54.790658 -8.293302 0.000000 0.000000 0.000000 
-0.022950 0.409870 -0.017409 -6.685095 -26.284270 -9.202726 9.546064 1.163028 -13.990520 16.073768 -27.189728 134.128264 -23.833816 -36.857415 13.979474 0.000000 0.000000 0.000000 1.150978 1.377339 -11.691015 16.062732 -0.653498 138.183085 -2.388565 -6.666280 8.754488 0.000000 0.000000 0.000000 12.097004 -1.465527 20.820111 -11.662469 3.492559 -20.654341 5.178283 8.834203 27.836318 7.593587 -1.709895 -39.989693 0.000000 0.000000 0.000000 -45.539962 -16.590149 15.020355 -16.371969 -20.308732 -1.603230 9.026209 -33.880561 -1.591299 0.000000 0.000000 0.000000 53.679750 3.055306 -7.406506 22.382425 5.544019 -1.407566 -17.915711 51.424337 -6.617691 0.000000 0.000000 0.000000 
-0.018950 0.418196 -0.019499 -6.209923 -25.882035 -8.932515 9.213419 1.075773 -14.308488 15.440113 -25.855930 134.360247 -20.046978 -38.517123 7.207670 0.000000 0.000000 0.000000 0.704799 1.258763 -11.096756 15.915648 -0.066957 137.612340 -2.389034 -6.506053 5.565837 0.000000 0.000000 0.000000 12.422899 -1.551525 21.293717 -11.876744 3.543531 -21.067228 5.092912 8.780536 28.375379 7.594026 -1.589300 -40.813907 0.000000 0.000000 0.000000 -46.199428 -16.283233 14.848323 -16.739913 -20.080060 -1.649967 8.396561 -31.015304 -1.258220 0.000000 0.000000 0.000000 54.710555 2.380409 -8.153511 21.967830 5.175645 -1.470216 -16.547113 48.414876 -5.508867 0.000000 0.000000 0.000000 
-0.015472 0.424342 -0.021078 -5.658489 -25.947463 -8.667977 9.073624 1.051460 -14.493234 15.688253 -25.413918 133.682304 -18.663310 -40.231731 4.092083 0.000000 0.000000 0.000000 0.320635 1.198264 -10.833628 16.010613 0.122728 137.232008 -3.037660 -7.922243 3.699820 0.000000 0.000000 0.000000 12.665358 -1.602105 21.756075 -12.363134 3.697318 -21.200632 5.090132 8.602793 28.505033 7.550515 -1.551805 -41.237800 0.000000 0.000000 0.000000 -47.189298 -15.355082 14.342803 -16.653344 -19.492969 -1.738683 7.855104 -29.926665 -1.070355 0.000000 0.000000 0.000000 55.301923 2.418203 -8.397649 21.677569 4.563057 -1.517155 -14.412864 45.219240 -4.202955 0.000000 0.000000 0.000000 
-0.012741 0.429749 -0.022031 -5.198093 -25.749384 -8.544323 8.895130 0.997030 -14.497682 15.773863 -24.936896 133.109067 -15.962660 -41.132411 -0.531542 0.000000 0.000000 0.000000 -0.199882 1.050620 -9.934688 15.806827 1.436309 136.527163 -2.992089 -7.767620 1.419113 0.000000 0.000000 0.000000 12.924078 -1.663185 22.157137 -12.390023 3.694744 -21.411468 4.902902 8.926209 29.172730 7.608055 -1.513956 -41.490448 0.000000 0.000000 0.000000 -48.301027 -15.209682 14.159022 -16.359427 -19.524403 -1.712486 7.491176 -29.274072 -0.958860 0.000000 0.000000 0.000000 56.372513 2.339861 -8.351911 21.115368 4.621174 -1.545079 -13.155264 42.253492 -3.373777 0.000000 0.000000 0.000000 
-0.010759 0.432911 -0.022831 -4.900245 -25.626602 -8.609993 8.750810 0.951358 -14.393055 16.006564 -24.842946 132.446035 -15.323735 -41.368809 -1.676840 0.000000 0.000000 0.000000 -0.530909 0.989750 -9.564312 15.686761 1.921918 136.284673 -3.081709 -7.963655 0.111255 0.000000 0.000000 0.000000 13.324963 -1.738176 22.704888 -12.659047 3.813686 -21.146960 4.884385 8.412018 28.838778 7.072159 -1.330562 -41.453296 0.000000 0.000000 0.000000 -49.048290 -14.731210 14.031843 -16.198012 -19.262442 -1.754913 7.648863 -28.237054 -0.967760 0.000000 0.000000 0.000000 56.203940 2.592727 -8.320892 21.378991 3.925001 -1.606195 -12.193022 40.019951 -2.838101 0.000000 0.000000 0.000000 
-0.009354 0.437326 -0.023746 -4.275581 -26.164743 -8.815393 8.371263 0.905674 -14.621372 17.039345 -25.729670 131.498406 -16.021738 -42.381022 -1.114695 0.000000 0.000000 0.000000 -0.911870 0.929012 -9.176447 16.119698 1.644746 135.816795 -3.579450 -9.265135 -0.961155 0.000000 0.000000 0.000000 13.373153 -1.764505 24.201701 -12.651457 3.754002 -21.885627 5.124606 8.307226 28.948901 6.683672 -1.221413 -41.414469 0.000000 0.000000 0.000000 -49.055863 -14.754768 14.296432 -16.892171 -18.797532 -1.854891 8.310658 -27.862196 -1.101890 0.000000 0.000000 0.000000 55.771365 2.741875 -8.298845 21.594063 3.758045 -1.617897 -11.097516 38.509275 -2.363019 0.000000 0.000000 0.000000 
-0.008232 0.441579 -0.024807 -4.019298 -26.868210 -8.725925 8.492250 0.996974 -15.119422 18.381117 -26.753082 130.090852 -17.454359 -44.353112 0.047945 0.000000 0.000000 0.000000 -1.087097 0.937220 -9.286093 16.424121 2.037826 135.590583 -3.767464 -9.804691 -1.936838 0.000000 0.000000 0.000000 13.877580 -1.804773 24.881604 -12.597891 3.782062 -21.089881 4.875692 8.661408 28.185987 6.110134 -0.902537 -41.683787 0.000000 0.000000 0.000000 -48.970402 -14.281464 13.691813 -17.527688 -19.169842 -1.773084 8.835768 -26.550852 -1.151647 0.000000 0.000000 0.000000 55.676896 3.374407 -7.588648 21.148045 3.796557 -1.565171 -11.940480 37.022844 -2.535689 0.000000 0.000000 0.000000 
-0.007318 0.446617 -0.025652 -3.317825 -27.772313 -9.062897 7.583229 0.887490 -16.084596 19.277030 -27.123592 129.591940 -17.049996 -45.655884 -1.035351 0.000000 0.000000 0.000000 -1.463741 0.923464 -9.248330 16.981284 2.206604 135.028785 -3.916873 -10.210037 -1.767120 0.000000 0.000000 0.000000 14.044684 -1.796745 26.753434 -12.734488 3.742229 -22.300312 5.086257 8.729939 28.615673 5.873100 -0.940688 -41.181325 0.000000 0.000000 0.000000 -49.302456 -14.478312 14.204990 -18.223131 -18.396881 -1.932028 10.110975 -26.156938 -1.414063 0.000000 0.000000 0.000000 55.556718 3.771001 -7.383838 20.363017 3.394141 -1.552324 -11.297743 36.803506 -2.324188 0.000000 0.000000 0.000000 
-0.006596 0.452156 -0.025721 -3.022459 -28.313104 -9.283287 6.670182 0.769027 -17.309376 19.748522 -27.416230 129.421629 -18.109856 -43.987397 1.445952 0.000000 0.000000 0.000000 -1.301092 0.951989 -9.452568 17.411309 2.074915 134.373792 -4.227538 -10.908567 0.228190 0.000000 0.000000 0.000000 14.615815 -1.850245 27.852432 -12.377422 3.628637 -22.258099 4.978164 8.799173 28.482106 5.306001 -0.701561 -41.228670 0.000000 0.000000 0.000000 -49.803988 -13.995956 13.871543 -18.444319 -18.705672 -1.903832 10.112555 -26.014327 -1.403069 0.000000 0.000000 0.000000 55.021526 4.745366 -6.336637 19.358805 4.037068 -1.396415 -12.603545 34.841933 -2.585884 0.000000 0.000000 0.000000 
-0.006072 0.460969 -0.025281 -2.843069 -29.425665 -8.291019 6.795586 1.020739 -19.444544 20.816765 -28.609327 128.996424 -20.456776 -43.059965 5.444359 0.000000 0.000000 0.000000 -1.143385 1.188099 -11.268800 17.952945 2.869729 133.323878 -4.840819 -12.267414 2.077813 0.000000 0.000000 0.000000 15.375184 -1.912333 28.642404 -13.177519 3.848258 -22.348208 5.711715 9.365854 27.493653 4.759811 -0.438596 -40.964266 0.000000 0.000000 0.000000 -50.395565 -13.749494 13.612489 -19.232772 -18.087820 -1.938005 10.911950 -27.028889 -1.624841 0.000000 0.000000 0.000000 55.292572 4.632711 -6.430003 17.463297 4.578161 -1.207063 -12.082498 32.697015 -2.270794 0.000000 0.000000 0.000000 
-0.005502 0.471234 -0.023489 -1.908998 -29.175930 -8.446590 5.623622 0.848901 -21.434808 22.624126 -31.998007 127.763378 -16.885048 -43.684282 -0.186944 0.000000 0.000000 0.000000 -1.828523 1.184569 -11.458514 18.005313 3.549586 131.472046 -4.865067 -12.250822 3.471632 0.000000 0.000000 0.000000 15.341263 -1.917314 29.016946 -11.622347 3.431045 -20.708603 3.849403 9.171460 25.839943 4.845952 -0.330925 -41.965173 0.000000 0.000000 0.000000 -50.643973 -12.358714 12.266858 -19.094522 -18.709138 -1.814034 11.081849 -27.128146 -1.658090 0.000000 0.000000 0.000000 55.401108 5.823340 -5.333379 15.735982 4.636199 -1.053529 -11.557636 31.344470 -2.033950 0.000000 0.000000 0.000000 
-0.004765 0.482505 -0.020438 -1.412420 -30.148820 -8.547299 4.828343 0.866790 -23.514029 24.050650 -34.304417 127.337549 -14.218890 -43.689001 -3.933078 0.000000 0.000000 0.000000 -2.151303 1.218189 -11.798222 18.036627 5.934812 129.734548 -4.605901 -11.603994 4.691877 0.000000 0.000000 0.000000 15.289480 -1.819755 30.717404 -11.182425 3.235657 -21.443386 4.512486 10.994536 25.252707 4.367047 0.011772 -41.230202 0.000000 0.000000 0.000000 -51.135614 -12.929566 11.707156 -19.916326 -17.465631 -1.706021 11.023280 -28.021184 -1.697446 0.000000 0.000000 0.000000 54.598169 4.667872 -5.137394 15.414845 6.148869 -1.046397 -11.136651 29.242563 -1.803103 0.000000 0.000000 0.000000 
-0.004313 0.490338 -0.016601 -0.734625 -29.882313 -9.002214 3.749479 0.660698 -25.043676 24.622702 -35.548349 126.947465 -10.606619 -41.567407 -8.370584 0.000000 0.000000 0.000000 -2.409032 1.246488 -12.112685 17.886286 6.492701 128.862303 -4.385998 -11.149946 3.868181 0.000000 0.000000 0.000000 15.257532 -1.822322 31.894350 -11.239740 3.291772 -20.879656 4.341389 10.413108 24.544384 4.050399 0.118360 -41.103958 0.000000 0.000000 0.000000 -50.870037 -12.902730 11.732598 -20.622274 -18.362660 -1.615789 11.546034 -28.405569 -1.834371 0.000000 0.000000 0.000000 54.036351 6.142579 -3.741442 15.493970 6.143625 -1.015554 -12.484957 28.031187 -2.034356 0.000000 0.000000 0.000000 
-0.004670 0.495573 -0.012317 -0.507814 -30.483071 -9.162471 3.246269 0.728450 -26.854904 25.190323 -35.227725 126.029530 -4.812867 -38.133085 -15.887694 0.000000 0.000000 0.000000 -2.253058 1.451013 -13.556400 17.666827 8.023336 129.676140 -4.095484 -10.420580 3.918441 0.000000 0.000000 0.000000 14.655369 -1.631253 32.810394 -10.941974 3.201713 -20.424206 4.537923 11.841782 24.464663 4.209857 0.227828 -40.996564 0.000000 0.000000 0.000000 -50.104281 -14.259206 11.936345 -21.047352 -18.008925 -1.429818 12.428979 -29.865021 -2.185140 0.000000 0.000000 0.000000 54.568016 6.570398 -2.425413 14.693465 7.562924 -0.965088 -14.843011 26.253140 -2.395636 0.000000 0.000000 0.000000 
